<?xml version="1.0" encoding="UTF-8"?>
<svg fill="#838c8d" width="300mm" height="300mm" version="1.1" viewBox="0 0 300 300" xml:space="preserve"
  xmlns="http://www.w3.org/2000/svg">
  <path
    d="m107.95 0.76306c-16.835 0-30.7 12.758-32.448 29.069-16.136 4.0778-28.136 18.758-28.136 36.175 0 3.4952 0.46626 6.9324 1.3983 10.136-16.777 3.67-29.36 18.583-29.36 36.467 0 8.7381 2.9703 16.778 8.0383 23.127-15.787 7.4565-26.68 23.534-26.68 42.117 0 19.923 12.466 36.933 30.059 43.574-1.3398 3.8447-2.0969 8.0386-2.0969 12.349 0 20.564 16.719 37.282 37.282 37.282 3.2622 0 6.4655-0.40755 9.4947-1.2231 1.7476 16.428 15.613 29.185 32.448 29.185 18 0 32.622-14.622 32.622-32.622v-131.52l-49.682 38.097-1.7453 1.3403c2.4373 9.8157-0.98263 20.572-9.53 27.124-11.517 8.8316-27.983 6.677-36.795-4.815-8.8124-11.492-6.6217-27.953 4.8958-36.784 8.5467-6.5537 19.822-7.0678 28.67-2.1674l0.53475-0.4096 0.03755 0.05 52.994-40.697-0.0671-0.0876c-2.3884-9.7881 1.0327-20.492 9.5504-27.022h1e-3c0.36954-0.28337 0.75732-0.52312 1.1366-0.78392v-55.337c0-18-14.622-32.622-32.622-32.622zm56.086 84.766c2.4129 0.8237 4.7553 1.9689 6.9279 3.5453 8.7149 6.3234 12.409 16.995 10.222 26.885l1.7806 1.2914 52.795 38.306c8.724-5.148 20.014-4.9455 28.729 1.3778 11.744 8.5212 14.354 24.934 5.8333 36.678-8.5211 11.744-24.934 14.354-36.678 5.8333-8.7149-6.3234-12.411-16.994-10.223-26.884l-23.328-16.927c-0.72825 7.0965-3.303 14.11-7.7948 20.301l-18.508 25.507c-6.8053 9.3791-4.712 22.538 4.6671 29.343l1.7795 1.2925c8.7239-5.148 20.015-4.9455 28.73 1.3778 11.744 8.5212 14.355 24.934 5.8334 36.678-8.5211 11.744-24.936 14.354-36.679 5.8333-8.7149-6.3234-12.41-16.995-10.222-26.885l-1.7806-1.2914c-2.5929-1.8814-4.8784-4.0215-6.9063-6.3317v24.94c0 18 14.622 32.622 32.622 32.622 16.835 0 30.699-12.757 32.447-29.185 3.0292 0.81553 6.2336 1.2231 9.4958 1.2231 20.564 0 37.282-16.719 37.282-37.282 0-4.3108-0.75708-8.5046-2.0969-12.349 17.593-6.6409 30.059-23.652 30.059-43.574 0-18.583-10.894-34.66-26.681-42.117 5.068-6.3496 8.0395-14.389 8.0395-23.127 0-17.884-12.583-32.855-29.36-36.467 0.93206-3.204 1.3983-6.6412 1.3983-10.136 0-17.476-11.943-32.098-28.137-36.175-1.8058-16.311-15.612-29.069-32.447-29.069-18 0-32.622 14.622-32.622 32.622v50.946c0.41368 0.05812 0.82157 0.17009 1.2334 0.24804 0.37477 0.07278 0.75037 0.13738 1.1218 0.22642 0.62293 0.14626 1.2375 0.327 1.8523 0.51996 0.20609 0.06566 0.41096 0.13287 0.61554 0.20366zm-8.964 16.894c-2.4197 0.10985-4.6576 1.3156-6.0804 3.2758-2.5821 3.5581-1.7908 8.5357 1.7675 11.118 3.5582 2.5819 8.5358 1.7902 11.117-1.7682 3.9162-5.3972-0.14316-12.929-6.8046-12.625zm93.637 67.898c-2.3952 0.10874-4.6104 1.3022-6.0188 3.2426-2.556 3.522-1.7726 8.4492 1.7496 11.005 3.5222 2.5557 8.4493 1.7721 11.005-1.7503 3.8765-5.3426-0.14171-12.798-6.7356-12.497zm-53.763 76.634c-8.25-1.4982-12.82 9.2162-6.0279 14.133 3.5212 2.5936 8.4809 1.823 11.049-1.7166s1.7622-8.4937-1.7957-11.037c-0.95779-0.69663-2.0603-1.1684-3.2256-1.3801zm-39.841-144.43c-0.2388 0.0388-0.47571 0.0885-0.70997 0.14906-0.90065 0.0884-1.7793 0.33121-2.5975 0.71793-0.38093 0.24334-0.74027 0.51894-1.074 0.82375-0.56668 0.3786-1.0818 0.82912-1.5326 1.3403-0.16882 0.28681-0.3193 0.58399-0.45055 0.88974-0.55909 0.96497-0.90695 2.0376-1.0206 3.1471-0.057 0.49487-0.0669 0.99394-0.0296 1.4905 0.11969 1.0569 0.45215 2.0787 0.97735 3.0037 0.13025 0.34771 0.285 0.68572 0.46308 1.0115 0.10929 0.0956 0.22121 0.18819 0.33564 0.27761 0.78536 0.90232 1.7659 1.614 2.8672 2.081 0.54731 0.20193 1.1155 0.34236 1.6941 0.4187 0.86921 0.14656 1.7569 0.14622 2.626-1e-3 0.53663-0.056 1.0662-0.16694 1.5804-0.33109 0.34433-0.21193 0.67184-0.45004 0.97962-0.71224v0.19797c2.9471-1.6597 4.5097-5.0117 3.8832-8.3296-2e-3 -7e-3 -3e-3 -0.0144-5e-3 -0.0216-0.24027-1.071-0.70224-2.0794-1.3562-2.9605-0.12782-0.15951-0.2618-0.31399-0.40163-0.46308-0.59755-0.70539-1.3151-1.2997-2.1197-1.7556v0.10582c-0.38585-0.2207-0.78968-0.40834-1.2072-0.56093-0.45228-0.157-0.91805-0.2724-1.3915-0.34474-0.49648-0.10654-1.0021-0.16484-1.5098-0.17407zm0 0c-0.0405-5e-3 -0.0811-9e-3 -0.12172-0.0137-0.1981 0.0466-0.39433 0.1009-0.58823 0.16271 0.23426-0.0605 0.47117-0.11029 0.70997-0.14906zm-5.9141 3.031c-0.0767 0.0645-0.15221 0.13055-0.22641 0.19798-0.0853 0.22702-0.16011 0.45785-0.22414 0.69177 0.13125-0.30575 0.28173-0.60293 0.45055-0.88974zm-0.52338 8.531c0.22417 0.45438 0.49165 0.88607 0.79872 1.2891-0.11443-0.0894-0.22635-0.18199-0.33564-0.27761-0.17808-0.32576-0.33283-0.66377-0.46308-1.0115zm10.546 2.9423v0.25373c1.0677-0.55891 1.9929-1.3553 2.7045-2.3279 1.2553-1.8265 1.6832-4.0973 1.1787-6.2555 0.62653 3.3179-0.93613 6.6699-3.8832 8.3296zm2.1197-11.775c-0.42992-0.48645-0.91831-0.9179-1.4541-1.2845-0.076-0.0556-0.15301-0.10986-0.23096-0.16271-0.14136-0.10765-0.28632-0.21048-0.43463-0.30833 0.80458 0.4559 1.5221 1.0502 2.1197 1.7556zm7.515 27.707c-2.9798 1.7584-6.2609 2.8772-9.6346 3.3564v49.443l16.081-22.164c6.8053-9.3792 4.7132-22.538-4.666-29.343zm-105.03 39.794c-2.3988-0.0451-4.6896 1.0055-6.2225 2.8535-2.3504 2.8339-2.4274 6.9126-0.18545 9.8235 2.6279 3.4936 7.6068 4.1686 11.083 1.5024 3.4765-2.6662 4.1158-7.6498 1.4231-11.094-1.4543-1.9045-3.6995-3.0405-6.0984-3.0856z"
    stroke-width=".58254" />
</svg>